<svg version="1.0" xmlns="http://www.w3.org/2000/svg" width="764" height="837.333" viewBox="0 0 573 628">
  <path d="M20 30.2c0 30 6.1 54.2 20.8 83.3 21.3 42 56 75.8 101.3 98.9 25.3 12.8 49.5 21.5 100.4 36.1 37.7 10.8 46.5 13.5 46.5 14.2 0 .3-1 .3-2.2 0-5.5-1.4-21-3.8-43.3-6.7-39.8-5.1-54.5-7.7-80.5-14.1-37-9.1-75-24.3-97.6-39-4.1-2.7-7.4-4.7-7.4-4.6 0 .1 1.4 3.8 3.1 8.2 7.7 20 18.8 36.7 35.9 53.5 12.6 12.5 22.5 19.7 38 27.8 28.6 15 55.8 20.1 99.9 18.8 12.4-.3 25.1-.8 28.1-1.1 5.3-.6 5.4-.5 2.5.8-4.6 2.1-25 7.5-34.8 9.2-16.9 2.9-31.8 3.8-52.2 3.2-27.9-.8-53.6-5.3-70.5-12.1-3.3-1.4-6-2.2-6-1.9 0 2 10.3 14.3 18.3 22 15.1 14.3 29.7 22.3 50.5 27.5 12.7 3.2 36.5 3.2 51 0 13.4-3 23.6-6.4 34.4-11.6 9.9-4.7 9.4-3.5-2.2 5.4-14 10.6-32.7 18.2-53.5 21.6-11.7 1.9-38.3 2.5-46.5 1.1l-4.5-.8 3 2.5c6.8 5.6 21.9 12.7 32.5 15.3 9.8 2.3 26.5 2.1 37.4-.6 9.6-2.3 22.7-8 30-13 19.8-13.7 34.3-37.6 34.8-57.6.1-3 .4-5.3.6-5 1.3 1.3 3.2 13.1 3.2 20.5 0 11.2-2.1 19.5-7.6 30.7-8 16.2-24 30.9-40.4 37.2-7.5 2.9-12.7 4-37.6 8.1-28.3 4.5-49.6 15.1-67 33.2-8.7 9-12.4 14.1-19 25.7-3.6 6.3-4.4 7.1-4.4 4.8 0-2-1.9-5-6.6-10.5-10.3-12-24.8-34.7-32.9-51.4-16.6-34.5-24.2-66.5-25.1-105.1l-.4-18.9-8.1-9.1c-4.5-5.1-10.5-12.5-13.3-16.4-2.8-4-5.4-7.3-5.7-7.3-1.5 0-3.4 27.4-3.3 49.5.1 19.1.5 26.8 2.2 38 3.9 25 10.5 48.7 19.4 69.5 17.9 41.8 42.2 74.3 77.8 104.1 9.9 8.3 20.1 16.1 20.5 15.7.3-.2-.5-3.3-1.6-6.8-3.2-10.1-3.7-26.2-1-37.2 6.8-28.7 30.7-50.8 66.6-61.6 16.4-5 22.3-5.7 44.5-5.7 19.2 0 21.2.2 31.3 2.8 23.2 6 38.9 15 57.1 32.7 10.1 9.8 10.6 10.2 7.8 5.5-10.7-17.5-13.1-44-6-64.9 2.3-6.9 6.7-15.6 7.9-15.6.9 0 10.9 12.4 15.8 19.6 4.6 6.7 7.5 8.7 12.6 8.8 5.1.1 7.5-1.7 11.6-9 2.8-4.8 3.2-5.2 7.5-5.7 5-.5 6.4-1.8 6.4-5.9 0-2.5.3-2.7 4.7-3l4.8-.3.7-4.7c.3-2.6.9-5.1 1.2-5.6.3-.6 3.1-.4 6.8.4 3.5.7 7.8 1.3 9.6 1.4h3.2v-12.8c0-7.2.7-15.7 1.5-19.7 1.3-6.4 1.9-7.4 6.9-12.2 3.1-2.9 6.4-6.9 7.5-9 2.2-4.3 4.8-13.3 5.3-17.8l.3-3 1.8 3.2c.9 1.8 1.7 4.5 1.7 6v2.8l2.5-3c3.9-4.7 10.3-18.3 12.6-27.1 4.3-16.4 2.4-36.5-4.7-50.6-2.7-5.2-9.4-15.8-10.1-15.8-.2 0 .4 1.7 1.3 3.7 6.3 14.7 9.2 35.9 6.4 46.8l-.8 3-.1-3.5c0-2-1-6.8-2.1-10.8-6.7-24.2-28-47.3-57-61.7-10.1-5.1-15.6-7.1-42.3-15.4-12.5-3.9-26.8-8.9-31.8-11.1-18.6-8.1-34.6-21.5-40.9-34.4-4.3-8.8-6.5-20.2-5.3-27.9.9-5.1.8-5.8-.3-4.2-.8 1-2.4 4.4-3.6 7.4-3.2 8.2-3.2 26 .1 35.1 6.4 18.1 18.8 31.1 43.6 45.5 21.9 12.8 26.8 15.9 36.7 23.3 9.1 6.8 20 18.1 23 23.7.6 1.1-1.8-.7-5.3-3.9s-10.7-8.6-15.9-12.1c-9-5.9-29.8-17.5-31.5-17.5-.4 0 3.2 2.8 8 6.2 10.8 7.7 23.7 20.6 30.5 30.4 5.4 7.8 12.7 22.4 15.9 31.7l1.9 5.5-2.8 2.7c-1.6 1.5-4.3 5.5-6.1 8.9-2.9 5.4-3.4 7.2-3.7 15.6-.5 11.1 1.2 18.9 6.3 29.3l3.3 6.8-4.9-4.2c-18-15.1-26.9-32.1-29-55.4-1.6-17.5-2.6-22.5-6.3-30-8.1-16.3-27.2-33.5-55.1-49.6-9.7-5.5-59.1-30.2-100.2-50-48.4-23.2-95.1-53.2-124-79.5-16.7-15.2-37.7-41.5-41.5-52-.6-1.9-1.6-3.4-2-3.4-.4 0-.8 6.9-.8 15.2zm70.2 78c5.1 4 14.1 10.5 19.8 14.5 5.8 3.9 12.9 9.2 15.6 11.7 2.8 2.5 5.4 4.3 5.6 4 .3-.3 6.1 2.8 12.9 6.9 6.8 4.1 19.2 11.4 27.4 16.2 22.3 13 26 15.3 37.5 22.4 12.4 7.6 33 21.1 33 21.6 0 .4-22.6-7-31.9-10.5-54.5-20.3-87.9-41.4-112.5-71-7-8.4-17.9-23-17.1-23 .2 0 4.6 3.3 9.7 7.2zM160 258.7c7.4 4 17 8.7 21.3 10.4 4.3 1.7 7.6 3.4 7.3 3.6-.2.3-5.5-1.3-11.8-3.4-12.2-4.1-24.6-11-31.8-17.5-3.2-2.9-3.6-3.5-1.5-2.2 1.7 1 9.1 5.1 16.5 9.1zM419.1 314c4.3 4.1 6 9.5 5.1 15.7l-.7 4.2-3.2-3.9c-1.8-2.1-4.7-6.3-6.4-9.2-1.8-2.9-4.9-7.9-7-11.1l-3.9-5.8 6.2 3.3c3.4 1.8 7.9 4.9 9.9 6.8z"/>
  <path d="M260 36.4c-34.7 4.4-72.2 16.2-94 29.5l-3.1 1.8L177 77.9l14 10.3 10.8-4.5c19.7-8.3 44.3-14.3 67.6-16.6 52.1-5.2 106.1 9.5 153.1 41.6 52.3 35.8 89.4 92.3 100.4 153.3 9 49.9 2.2 100-19.9 145.8-3.3 6.8-8.3 16.3-11.2 21-13.5 22.5-36.2 47.9-57.4 64.5l-11.1 8.7-.7 5.3c-1 7.5-6 21.7-11 31.3l-4.2 8.2 8.5-4.5c21-11.1 44.2-28.4 62.2-46.3 45-44.8 72.5-102.9 79-166.4 1.5-15.1.6-51.3-1.6-65.1-12.6-80-58.9-149-127.5-190.5-12.7-7.7-35-18.5-48.1-23.4-12.3-4.5-33-10-48.4-12.7-15.4-2.7-55.2-3.5-71.5-1.5z"/>
  <path d="M328.2 109.7c-4.3 9.4-5.5 15.9-5 27.7.5 12.6 2 15.9 8.6 18.7 2.6 1.2 13 4.9 23.2 8.4 24.7 8.4 32.6 11.6 44.9 18.1 15.4 8.1 24.4 14.7 35.5 25.8 10.3 10.2 10.4 9.8 1.2-3.8-7.8-11.7-21.1-22.8-36.6-30.6-3.6-1.8-14.3-6.2-23.9-9.7-9.6-3.5-19.7-7.6-22.5-9.1-6.4-3.4-14.5-11.5-17.3-17.3-4.7-9.5-6.5-22.1-4.4-31.2 1.4-5.7-.3-4.4-3.7 3zM225.2 434.1c-9.8 1.3-21 4.6-30.2 9.2-16.1 7.9-29.1 23.8-33.5 41.2-1.9 7.6-1.9 22.4 0 30 2.2 8.6 8.9 21.5 14.8 28.2 5.8 6.7 7.5 7.8 5.2 3.4-2.9-5.8-5.5-18.1-5.5-26.5 0-27.1 16.8-48.2 43.9-55.1 23.4-6 51-.4 76.7 15.5 10 6.3 24.5 18.2 31.9 26.3 6.8 7.4 7.9 10 2.2 5-11.4-10-39.9-22.8-60.8-27.4-41.9-9.1-65.7 1.4-70.1 31.1-3.3 22 8.7 41.6 37.2 61.2 17.2 11.9 27.2 19.9 39 31.5 6.9 6.8 12.7 12.3 12.9 12.3.2 0 .1-10-.2-22.3-.7-26-1.9-32.6-7.8-43.5-2.3-4.2-5.3-9.9-6.7-12.5-2.7-5.1-3.9-13.6-2.8-18.4l.7-2.7 1.8 3.9c1 2.2 4.8 7.6 8.5 12 3.6 4.3 6.6 8.6 6.6 9.4 0 .8 1.2-.3 2.8-2.6 1.5-2.3 4.7-6.5 7.1-9.4 2.4-3 5.1-6.9 5.9-8.7.9-1.7 1.9-3.2 2.4-3.2.4 0 .8 3.1.8 6.9 0 6.3-.4 7.8-4.2 14.8-12.4 23.2-12.8 24.9-13.5 55.8-.5 22-.4 22.9 1.3 20.5 2.9-4.2 17.5-18.8 25.4-25.4 4.1-3.5 14.5-11.1 23-17.1 20.1-14 26.2-18.9 34.4-27.6 17-17.9 26-39.5 22.6-54-3.8-16.3-14.6-28.6-40.1-45.8l-11.6-7.8 4.4 6.1c20.3 28.1 26.9 39.3 29.8 50.1 2.1 8.3 2 22.8-.4 30.4-1.9 6.2-6.9 15.6-7.8 14.8-.2-.3.1-1.6.9-2.9.9-1.6 1.3-6.1 1.2-14.8 0-11-.3-13.5-2.8-20.5-2.5-7.5-8-17.7-12.6-23.5-1.7-2.2-1.7-1.8.5 3.5 2 5.1 5.6 21.8 5.5 25.8 0 .6-1.4-1.4-3.1-4.5-1.7-3.1-6.8-10.3-11.3-16-32.5-40.9-79.9-62.5-124.4-56.7z"/>
</svg>
